<?xml version="1.0" encoding="utf-8"?>
<svg xmlns="http://www.w3.org/2000/svg" viewBox="0 0 24 24" fill="#000000"><path d="M 12 2 C 6.486 2 2 6.486 2 12 C 2 14.398 2.8497188 16.600219 4.2617188 18.324219 L 5.6894531 16.896484 C 4.6344531 15.541484 4 13.846 4 12 C 4 7.9284807 7.0603971 4.5631499 11 4.0683594 L 11 6.0917969 C 8.1667695 6.5701756 6 9.0325526 6 12 C 6 14.967447 8.1667695 17.429824 11 17.908203 L 11 19.929688 C 9.5436606 19.745322 8.2082507 19.172713 7.1015625 18.3125 L 5.6757812 19.738281 C 7.4007812 21.149281 9.602 22 12 22 C 17.514 22 22 17.514 22 12 C 22 9.602 21.150281 7.3997813 19.738281 5.6757812 L 18.3125 7.1015625 C 19.3665 8.4575625 20 10.154 20 12 C 20 16.071519 16.939603 19.43685 13 19.931641 L 13 17.912109 C 13.908981 17.757439 14.748217 17.399565 15.470703 16.884766 L 14.019531 15.433594 C 13.424531 15.785594 12.74 16 12 16 C 9.794 16 8 14.206 8 12 C 8 9.794 9.794 8 12 8 C 14.206 8 16 9.794 16 12 C 16 12.74 15.785594 13.424531 15.433594 14.019531 L 16.884766 15.470703 C 17.583766 14.489703 18 13.294 18 12 C 18 9.0325526 15.83323 6.5701756 13 6.0917969 L 13 4.0703125 C 14.456339 4.2546775 15.791749 4.8272866 16.898438 5.6875 L 18.324219 4.2617188 C 16.599219 2.8507188 14.398 2 12 2 z M 12 10 A 2 2 0 0 0 10 12 A 2 2 0 0 0 12 14 A 2 2 0 0 0 14 12 A 2 2 0 0 0 12 10 z" fill="#000000"/></svg>
